# xmcd
#
# Track frame offsets:
#	150
#	16050
#	34350
#	52650
#	70050
#	87600
#	105000
#	121800
#	139500
#	155400
#	173700
#	192000
#	209400
#	226950
#	244350
#	261150
#	278850
#
# Disc length: 3733 seconds
#
# Revision: 1
# Processed by: cddbd v1.5.2PL0 Copyright (c) Steve Scherf et al.
# Submitted via: audiograbber 1.83.01
#
DISCID=dd0e9311
DTITLE=Current Hits Karaoke - Aug 2008 Country Series
DYEAR=1900
DGENRE=
TTITLE0=Sugarland - All I Want To Do
TTITLE1=Taylor Swift - Should've Said No
TTITLE2=Carrie Underwood - Last Name
TTITLE3=Rascal Flatts - Every Day
TTITLE4=Montgomery Gentry - Back When I Knew It All
TTITLE5=Lady Antebellum - Love Don't Live Here
TTITLE6=Josh Turner - Another Try
TTITLE7=Phil Vassar - Love Is A Beautiful
TTITLE8=Sugarland - All I Want To Do (vocal)
TTITLE9=Taylor Swift - Should've Said No (vocal)
TTITLE10=Carrie Underwood - Last Name (vocal)
TTITLE11=Rascal Flatts - Every Day (vocal)
TTITLE12=Montgomery Gentry - Back When I Knew It All (vocal)
TTITLE13=Lady Antebellum - Love Don't Live Here (vocal)
TTITLE14=Josh Turner - Another Try (vocal)
TTITLE15=Phil Vassar - Love Is A Beautiful Thing (vocal)
TTITLE16=data - data
EXTD=
EXTT0=
EXTT1=
EXTT2=
EXTT3=
EXTT4=
EXTT5=
EXTT6=
EXTT7=
EXTT8=
EXTT9=
EXTT10=
EXTT11=
EXTT12=
EXTT13=
EXTT14=
EXTT15=
EXTT16=
PLAYORDER=
